<svg xmlns="http://www.w3.org/2000/svg"  style="display: none;">
    <symbol id="epic" viewBox="0 0 50 50">
<path d="M 10 3 C 6.6983746 3 4 5.6983746 4 9 L 4 41.244141 L 25 47.544922 L 46 41.244141 L 46 40.5 L 46 9 C 46 5.6983746 43.301625 3 40 3 L 10 3 z M 10 5 L 40 5 C 42.220375 5 44 6.7796254 44 9 L 44 39.755859 L 25 45.455078 L 6 39.755859 L 6 9 C 6 6.7796254 7.7796254 5 10 5 z M 11 8 C 9.343 8 8 9.343 8 11 L 8 28 C 8 29.657 9.343 31 11 31 L 15 31 L 15 28 L 11 28 L 11 21 L 14 21 L 14 18 L 11 18 L 11 11 L 15 11 L 15 8 L 11 8 z M 17 8 L 17 31 L 20 31 L 20 21 L 23 21 C 24.657 21 26 19.657 26 18 L 26 11 C 26 9.343 24.657 8 23 8 L 17 8 z M 28 8 L 28 31 L 31 31 L 31 8 L 28 8 z M 36 8 C 34.343 8 33 9.343 33 11 L 33 28 C 33 29.657 34.343 31 36 31 L 39 31 C 40.657 31 42 29.657 42 28 L 42 24 L 39 24 L 39 28 L 36 28 L 36 11 L 39 11 L 39 15 L 42 15 L 42 11 C 42 9.343 40.657 8 39 8 L 36 8 z M 20 11 L 23 11 L 23 18 L 20 18 L 20 11 z M 9 33 C 8.448 33 8 33.448 8 34 L 8 38 C 8 38.552 8.448 39 9 39 L 13 39 C 13.552 39 14 38.552 14 38 L 14 36 L 12 36 L 12 37 L 13 37 L 13 37.75 C 13 37.888 12.888 38 12.75 38 L 9.25 38 C 9.112 38 9 37.888 9 37.75 L 9 34.25 C 9 34.112 9.112 34 9.25 34 L 12.75 34 C 12.888 34 13 34.112 13 34.25 L 13 35 L 14 35 L 14 34 C 14 33.448 13.552 33 13 33 L 9 33 z M 18 33 L 15 39 L 16 39 L 16.5 38 L 20.5 38 L 21 39 L 22 39 L 19 33 L 18 33 z M 23 33 L 23 39 L 24 39 L 24 35 L 25.5 38 L 26.5 38 L 28 35 L 28 39 L 29 39 L 29 33 L 28 33 L 26 37 L 24 33 L 23 33 z M 30 33 L 30 34 L 30 38 L 30 39 L 31 39 L 35 39 L 35 38 L 31 38 L 31 36.5 L 33 36.5 L 33 35.5 L 31 35.5 L 31 34 L 35 34 L 35 33 L 31 33 L 30 33 z M 37 33 C 36.448 33 36 33.448 36 34 L 36 35.5 C 36 36.052 36.448 36.5 37 36.5 L 40.75 36.5 C 40.888 36.5 41 36.612 41 36.75 L 41 37.75 C 41 37.888 40.888 38 40.75 38 L 37.25 38 C 37.112 38 37 37.888 37 37.75 L 37 37.5 L 36 37.5 L 36 38 C 36 38.552 36.448 39 37 39 L 41 39 C 41.552 39 42 38.552 42 38 L 42 36.5 C 42 35.948 41.552 35.5 41 35.5 L 37.25 35.5 C 37.112 35.5 37 35.388 37 35.25 L 37 34.25 C 37 34.112 37.112 34 37.25 34 L 40.75 34 C 40.888 34 41 34.112 41 34.25 L 41 34.5 L 42 34.5 L 42 34 C 42 33.448 41.552 33 41 33 L 37 33 z M 18.5 34 L 20 37 L 17 37 L 18.5 34 z"></path>
    </symbol>
    <symbol id="gog" viewBox="0 0 32 32">
<path d="M 5 6 C 3.90625 6 3 6.90625 3 8 L 3 12 C 3 13.09375 3.90625 14 5 14 L 9 14 L 9 15 L 4 15 C 3.640625 14.996094 3.304688 15.183594 3.121094 15.496094 C 2.941406 15.808594 2.941406 16.191406 3.121094 16.503906 C 3.304688 16.816406 3.640625 17.003906 4 17 L 9.03125 17 C 10.113281 17 11 16.113281 11 15.03125 L 11 12 C 11.007813 11.9375 11.007813 11.875 11 11.8125 L 11 8 C 11 6.90625 10.09375 6 9 6 Z M 14 6 C 12.90625 6 12 6.90625 12 8 L 12 12 C 12 13.09375 12.90625 14 14 14 L 18 14 C 19.09375 14 20 13.09375 20 12 L 20 8 C 20 6.90625 19.09375 6 18 6 Z M 23 6 C 21.90625 6 21 6.90625 21 8 L 21 12 C 21 13.09375 21.90625 14 23 14 L 27 14 L 27 15 L 22 15 C 21.640625 14.996094 21.304688 15.183594 21.121094 15.496094 C 20.941406 15.808594 20.941406 16.191406 21.121094 16.503906 C 21.304688 16.816406 21.640625 17.003906 22 17 L 27.03125 17 C 28.113281 17 29 16.113281 29 15.03125 L 29 12 C 29.007813 11.9375 29.007813 11.875 29 11.8125 L 29 8 C 29 6.90625 28.09375 6 27 6 Z M 5 8 L 9 8 L 9 11.8125 C 8.996094 11.855469 8.996094 11.894531 9 11.9375 L 9 12 L 5 12 Z M 14 8 L 18 8 L 18 12 L 14 12 Z M 23 8 L 27 8 L 27 11.8125 C 26.996094 11.855469 26.996094 11.894531 27 11.9375 L 27 12 L 23 12 Z M 23.90625 17.96875 C 23.863281 17.976563 23.820313 17.988281 23.78125 18 L 21 18 C 19.90625 18 19 18.90625 19 20 L 19 25 C 18.996094 25.359375 19.183594 25.695313 19.496094 25.878906 C 19.808594 26.058594 20.191406 26.058594 20.503906 25.878906 C 20.816406 25.695313 21.003906 25.359375 21 25 L 21 20 L 23 20 L 23 25 C 22.996094 25.359375 23.183594 25.695313 23.496094 25.878906 C 23.808594 26.058594 24.191406 26.058594 24.503906 25.878906 C 24.816406 25.695313 25.003906 25.359375 25 25 L 25 20 L 27 20 L 27 25.03125 C 26.996094 25.390625 27.183594 25.726563 27.496094 25.910156 C 27.808594 26.089844 28.191406 26.089844 28.503906 25.910156 C 28.816406 25.726563 29.003906 25.390625 29 25.03125 L 29 18 L 24.1875 18 C 24.097656 17.976563 24 17.964844 23.90625 17.96875 Z M 5 18 C 3.90625 18 3 18.90625 3 20 L 3 24 C 3 25.09375 3.90625 26 5 26 L 8 26 C 8.359375 26.003906 8.695313 25.816406 8.878906 25.503906 C 9.058594 25.191406 9.058594 24.808594 8.878906 24.496094 C 8.695313 24.183594 8.359375 23.996094 8 24 L 5 24 L 5 20 L 8 20 C 8.359375 20.003906 8.695313 19.816406 8.878906 19.503906 C 9.058594 19.191406 9.058594 18.808594 8.878906 18.496094 C 8.695313 18.183594 8.359375 17.996094 8 18 Z M 12 18 C 10.90625 18 10 18.90625 10 20 L 10 24 C 10 25.09375 10.90625 26 12 26 L 16 26 C 17.09375 26 18 25.09375 18 24 L 18 20 C 18 18.90625 17.09375 18 16 18 Z M 12 20 L 16 20 L 16 24 L 12 24 Z"></path>
    </symbol>
    <symbol id="uplay" viewBox="0 0 50 50">
<path d="M 19.5 0 C 17.578125 0 16 1.578125 16 3.5 C 16 5.421875 17.578125 7 19.5 7 C 21.421875 7 23 5.421875 23 3.5 C 23 1.578125 21.421875 0 19.5 0 Z M 7.59375 2 C 5.277344 2 3.3125 3 2 4.53125 C 0.6875 6.0625 0 8.105469 0 10.25 C 0 12.542969 1.347656 14.195313 2.875 15.15625 C 4.402344 16.117188 6.097656 16.5 7.375 16.5 C 9 16.5 10.859375 15.960938 12.375 14.6875 C 13.890625 13.414063 15 11.390625 15 8.65625 C 15 5.714844 13.324219 3.878906 11.625 3 C 9.925781 2.121094 8.25 2 7.59375 2 Z M 19.5 2 C 20.339844 2 21 2.660156 21 3.5 C 21 4.339844 20.339844 5 19.5 5 C 18.660156 5 18 4.339844 18 3.5 C 18 2.660156 18.660156 2 19.5 2 Z M 7.59375 4 C 7.945313 4 9.472656 4.136719 10.71875 4.78125 C 11.964844 5.425781 13 6.410156 13 8.65625 C 13 10.875 12.191406 12.234375 11.09375 13.15625 C 9.996094 14.078125 8.542969 14.5 7.375 14.5 C 6.546875 14.5 5.070313 14.179688 3.9375 13.46875 C 2.804688 12.757813 2 11.804688 2 10.25 C 2 8.542969 2.566406 6.96875 3.53125 5.84375 C 4.496094 4.71875 5.832031 4 7.59375 4 Z M 31.3125 5.03125 C 19.5 5.03125 8.8125 15.617188 8.8125 29.65625 C 8.8125 35.773438 12.691406 40.625 17.4375 43.90625 C 22.183594 47.1875 27.8125 49 31.9375 49 C 36.175781 49 40.636719 46.472656 44.09375 42.3125 C 47.550781 38.152344 50 32.3125 50 25.53125 C 50 18.988281 46.359375 13.832031 42.28125 10.375 C 40.242188 8.648438 38.078125 7.339844 36.15625 6.4375 C 34.234375 5.535156 32.59375 5.03125 31.3125 5.03125 Z M 31.3125 7.03125 C 31.984375 7.03125 33.554688 7.425781 35.3125 8.25 C 37.070313 9.074219 39.078125 10.304688 40.96875 11.90625 C 44.75 15.113281 48 19.730469 48 25.53125 C 48 31.832031 45.726563 37.222656 42.5625 41.03125 C 39.398438 44.839844 35.359375 47 31.9375 47 C 28.421875 47 22.96875 45.332031 18.5625 42.28125 C 14.15625 39.230469 10.8125 34.925781 10.8125 29.65625 C 10.8125 16.632813 20.699219 7.03125 31.3125 7.03125 Z M 17 18 L 17 30.5 C 17 34.628906 20.371094 38 24.5 38 L 41 38 L 41 18 L 34 18 L 34 30.5 C 34 30.785156 33.785156 31 33.5 31 L 24.5 31 C 24.214844 31 24 30.785156 24 30.5 L 24 18 Z M 19 20 L 22 20 L 22 30.5 C 22 31.867188 23.132813 33 24.5 33 L 33.5 33 C 34.867188 33 36 31.867188 36 30.5 L 36 20 L 39 20 L 39 36 L 24.5 36 C 21.449219 36 19 33.550781 19 30.5 Z"></path>
    </symbol>

    <symbol id="playstation" viewBox="0 0 50 50">
<path d="M 18.8125 4 C 18.335938 4.089844 17.992188 4.511719 18 5 L 18 26 L 15.15625 27.0625 L 5.875 30.34375 C 5.863281 30.355469 5.855469 30.363281 5.84375 30.375 L 4.25 30.96875 C 4.230469 30.976563 4.207031 30.988281 4.1875 31 C 1.589844 32.191406 0 33.820313 0 35.6875 C 0 37.171875 0.4375 38.523438 1.3125 39.53125 C 2.1875 40.539063 3.449219 41.1875 4.96875 41.5 C 8.003906 42.125 12.117188 41.53125 17.3125 39.75 C 17.527344 39.679688 17.691406 39.609375 18 39.5 L 18 41.59375 C 17.996094 42.042969 18.289063 42.4375 18.71875 42.5625 L 26.4375 44.875 C 26.46875 44.886719 26.5 44.898438 26.53125 44.90625 C 26.621094 44.953125 26.714844 44.984375 26.8125 45 C 26.90625 45.011719 27 45.011719 27.09375 45 C 27.105469 45 27.113281 45 27.125 45 C 27.199219 44.988281 27.273438 44.964844 27.34375 44.9375 C 27.386719 44.929688 27.429688 44.917969 27.46875 44.90625 C 27.480469 44.894531 27.488281 44.886719 27.5 44.875 L 33.625 42.75 L 44.4375 38.9375 C 44.46875 38.929688 44.5 38.917969 44.53125 38.90625 L 45.75 38.34375 C 45.777344 38.332031 45.785156 38.324219 45.8125 38.3125 C 47.132813 37.800781 48.144531 37.261719 48.875 36.59375 C 49.621094 35.910156 50.074219 34.980469 50 34.03125 C 49.917969 33.070313 49.316406 32.257813 48.5 31.65625 C 47.683594 31.054688 46.625 30.578125 45.3125 30.15625 C 42.277344 29.109375 39.269531 28.800781 36.5625 28.90625 C 34.003906 29.007813 31.324219 29.40625 28.65625 30.21875 L 28.59375 30.25 L 28 30.40625 L 28 13.53125 C 28.578125 13.847656 29 14.351563 29 15 L 29 26.09375 C 28.996094 26.429688 29.160156 26.746094 29.4375 26.9375 C 29.4375 26.9375 29.894531 27.242188 30.65625 27.5 C 31.417969 27.757813 32.539063 28 34 28 C 36.710938 28 38.425781 26.355469 39.1875 24.53125 C 39.949219 22.707031 40 20.695313 40 19.40625 C 40 13.320313 36.320313 9.15625 31.28125 7.65625 L 19.28125 4.03125 C 19.160156 3.996094 19.03125 3.988281 18.90625 4 C 18.875 4 18.84375 4 18.8125 4 Z M 20 6.34375 L 30.71875 9.5625 C 35.078125 10.863281 38 14.09375 38 19.40625 C 38 20.617188 37.90625 22.398438 37.34375 23.75 C 36.78125 25.101563 35.988281 26 34 26 C 32.761719 26 31.878906 25.785156 31.3125 25.59375 C 31.078125 25.515625 31.117188 25.523438 31 25.46875 L 31 15 C 31 13.371094 29.90625 12.039063 28.46875 11.5 C 28.453125 11.496094 28.453125 11.472656 28.4375 11.46875 C 27.261719 11.023438 26 11.933594 26 13.1875 L 26 31.5625 C 25.992188 31.636719 25.992188 31.707031 26 31.78125 L 26 36.40625 C 25.972656 36.539063 25.972656 36.679688 26 36.8125 L 26 39.25 C 25.941406 39.441406 25.941406 39.652344 26 39.84375 L 26 42.65625 L 20 40.875 L 20 38.34375 C 20.058594 38.152344 20.058594 37.941406 20 37.75 L 20 34.5625 C 20.113281 34.304688 20.113281 34.007813 20 33.75 L 20 31.6875 C 20.132813 31.410156 20.132813 31.089844 20 30.8125 L 20 26.8125 C 20.015625 26.707031 20.015625 26.605469 20 26.5 Z M 18 28.125 L 18 30.59375 C 17.527344 30.757813 16.601563 31.09375 15.125 31.625 C 14.21875 31.949219 13.304688 32.300781 12.5625 32.5625 C 11.820313 32.824219 11.1875 33.011719 11.125 33.03125 C 11.105469 33.039063 11.082031 33.050781 11.0625 33.0625 C 9.628906 33.59375 8.707031 34.117188 8.125 34.71875 C 7.832031 35.019531 7.589844 35.359375 7.53125 35.84375 C 7.488281 36.203125 7.785156 36.519531 8.03125 36.8125 L 7.90625 36.90625 C 7.90625 36.90625 8.078125 37.054688 8.1875 37.15625 C 8.273438 37.234375 8.289063 37.273438 8.40625 37.34375 C 8.675781 37.511719 9.058594 37.660156 9.5625 37.75 C 10.5625 37.925781 12.027344 37.808594 14.21875 37.03125 C 14.230469 37.027344 14.238281 37.035156 14.25 37.03125 C 15.511719 36.589844 16.914063 36.070313 18 35.65625 L 18 37.375 C 17.542969 37.535156 17.066406 37.71875 16.6875 37.84375 C 11.679688 39.5625 7.789063 40.03125 5.375 39.53125 C 4.167969 39.28125 3.34375 38.828125 2.8125 38.21875 C 2.28125 37.609375 2 36.800781 2 35.6875 C 2 35.152344 2.828125 33.820313 5.03125 32.8125 L 6.53125 32.25 L 6.5625 32.25 L 15.84375 28.9375 Z M 36.625 30.90625 C 39.121094 30.808594 41.921875 31.078125 44.6875 32.03125 C 44.6875 32.042969 44.6875 32.050781 44.6875 32.0625 C 45.875 32.441406 46.777344 32.851563 47.3125 33.25 C 47.847656 33.648438 47.980469 33.949219 48 34.1875 C 48.027344 34.539063 47.960938 34.730469 47.53125 35.125 C 47.101563 35.519531 46.269531 35.992188 45.03125 36.46875 C 45.011719 36.476563 44.988281 36.488281 44.96875 36.5 L 43.78125 37.0625 L 43.6875 37.09375 L 32.96875 40.84375 L 28 42.59375 L 28 40.1875 C 28.984375 39.832031 37.042969 36.914063 38.84375 36.25 C 40.355469 35.695313 41.296875 35.3125 41.9375 34.96875 C 42.257813 34.796875 42.507813 34.644531 42.75 34.375 C 42.992188 34.105469 43.164063 33.5625 43.0625 33.15625 C 43.039063 33.046875 42.996094 32.941406 42.9375 32.84375 C 42.625 32.375 41.9375 32.058594 41.1875 31.90625 L 41.21875 31.84375 C 41.21875 31.84375 41.082031 31.824219 41.03125 31.8125 C 40.933594 31.789063 40.851563 31.765625 40.65625 31.75 C 40.363281 31.726563 39.976563 31.726563 39.40625 31.78125 C 38.265625 31.890625 36.484375 32.238281 33.78125 33.15625 C 30.769531 34.179688 29.078125 34.769531 28 35.15625 L 28 32.46875 L 29.15625 32.15625 C 29.167969 32.15625 29.175781 32.15625 29.1875 32.15625 C 31.699219 31.382813 34.203125 31.003906 36.625 30.90625 Z M 18 32.75 L 18 33.53125 C 17.210938 33.832031 15.183594 34.589844 13.5625 35.15625 C 11.765625 35.796875 10.753906 35.84375 10.15625 35.78125 C 10.496094 35.542969 10.824219 35.296875 11.6875 34.96875 C 11.722656 34.957031 11.714844 34.949219 11.75 34.9375 C 12.042969 34.851563 12.503906 34.691406 13.21875 34.4375 C 13.96875 34.175781 14.90625 33.855469 15.8125 33.53125 C 16.933594 33.128906 17.335938 32.992188 18 32.75 Z M 39.59375 33.78125 C 39.121094 33.972656 38.910156 34.097656 38.15625 34.375 C 36.488281 34.988281 29.777344 37.417969 28 38.0625 L 28 37.3125 C 28.621094 37.082031 30.1875 36.496094 34.40625 35.0625 C 37.003906 34.179688 38.660156 33.871094 39.59375 33.78125 Z"></path>
</symbol>

<symbol id="xbox" viewBox="0 0 50 50">
<path d="M 25.001953 2 C 20.773627 2 16.751857 3.1814924 13.373047 5.2246094 C 12.832601 5.4125246 12.572102 5.6766734 12.261719 5.9609375 C 12.258215 5.9641463 12.253517 5.9655354 12.25 5.96875 A 1.0001 1.0001 0 0 0 12.197266 6.0078125 C 12.195349 6.0085506 12.193107 6.0084167 12.191406 6.0097656 L 12.191406 6.0117188 C 12.182893 6.0184864 12.177574 6.0239083 12.171875 6.0292969 C 12.165648 6.0328647 12.159945 6.0368659 12.154297 6.0410156 C 12.152414 6.0423989 12.150164 6.0433894 12.148438 6.0449219 A 1.0001 1.0001 0 0 0 12.128906 6.0644531 C 12.047856 6.1364023 11.97823 6.2017943 11.919922 6.2578125 C 11.914222 6.2632425 11.905861 6.2720967 11.900391 6.2773438 C 11.895991 6.2817337 11.887053 6.2887287 11.882812 6.2929688 A 1.0001 1.0001 0 0 0 12.589844 8 L 12.591797 8 A 1.0001 1.0001 0 0 0 13.283203 7.7226562 C 13.349092 7.6595092 13.398715 7.611919 13.447266 7.5683594 C 13.983807 7.1514728 14.826017 7.0479348 15.966797 7.28125 C 17.116143 7.5163173 18.467696 8.0881604 19.726562 8.7578125 C 22.244297 10.097117 24.380859 11.783203 24.380859 11.783203 A 1.0001 1.0001 0 0 0 25.623047 11.783203 C 25.623047 11.783203 27.759635 10.096984 30.277344 8.7578125 C 31.536198 8.0882269 32.887801 7.5161855 34.037109 7.28125 C 35.180225 7.0475804 36.024098 7.152975 36.560547 7.5722656 C 36.610057 7.6168748 36.65928 7.6637929 36.720703 7.7226562 A 1.0001 1.0001 0 0 0 37.412109 8 L 37.414062 8 A 1.0001 1.0001 0 0 0 38.121094 6.2929688 C 38.117094 6.2889887 38.109579 6.2814527 38.105469 6.2773438 L 38.103516 6.2753906 C 38.032912 6.2077241 37.951165 6.1304138 37.853516 6.0449219 C 37.849412 6.0412902 37.844729 6.0380527 37.839844 6.0351562 C 37.831245 6.0273241 37.824174 6.020993 37.8125 6.0117188 L 37.8125 6.0097656 C 37.8108 6.0084154 37.808535 6.0086145 37.806641 6.0078125 A 1.0001 1.0001 0 0 0 37.730469 5.953125 C 37.425882 5.6733404 37.169176 5.4111759 36.628906 5.2246094 C 33.25045 3.1812546 29.22938 2 25.001953 2 z M 25.001953 4 C 27.75149 4 30.315927 4.6974668 32.724609 5.6757812 C 31.573105 6.0182966 30.408349 6.4228098 29.337891 6.9921875 C 26.961131 8.2563874 25.468677 9.4515243 25.001953 9.8125 C 24.535231 9.4515245 23.042754 8.2564897 20.666016 6.9921875 C 19.595845 6.4229117 18.432429 6.0183996 17.28125 5.6757812 C 19.689552 4.6981994 22.253051 4 25.001953 4 z M 11.419922 8.0078125 C 9.4646494 8.0078125 8.21875 9.2832031 8.21875 9.2832031 A 1.0001 1.0001 0 0 0 8.1992188 9.3027344 C 4.4037543 13.396824 2.0019531 18.902675 2.0019531 25 C 2.0019531 30.981436 4.3499505 36.384765 8.1015625 40.478516 C 8.1047225 40.481916 8.106215 40.486814 8.109375 40.490234 A 1.0001 1.0001 0 0 0 8.1992188 40.597656 C 12.401316 45.122207 18.350071 48 25.001953 48 C 31.581749 48 37.582177 45.19762 41.775391 40.736328 A 1.0001 1.0001 0 0 0 42.101562 40.496094 C 45.795011 36.402932 48.097656 30.996514 48.097656 25.001953 A 1.0001 1.0001 0 0 0 48.097656 24.984375 C 47.99756 18.999182 45.701719 13.499899 41.900391 9.3984375 A 1.0001 1.0001 0 0 0 41.875 9.3710938 L 41.587891 9.0839844 L 41.626953 9.1269531 C 40.503484 7.8624967 38.882674 8.0625 38.125 8.0625 A 1.0001 1.0001 0 0 0 37.773438 8.125 C 37.533271 8.215102 36.227449 8.6043363 34.541016 9.4707031 C 32.854582 10.33707 30.682876 11.722358 28.316406 13.941406 A 1.0001 1.0001 0 0 0 28.300781 15.384766 C 28.300781 15.384766 33.435987 20.428376 36.589844 25.4375 C 38.847734 29.132509 40.382046 32.116109 40.652344 35.5 C 40.145782 34.512674 39.500605 33.402742 38.642578 32.183594 C 36.655403 29.196923 33.597024 25.914637 30.935547 23.261719 C 29.603068 21.933525 28.371468 20.766664 27.431641 19.890625 C 26.491814 19.014586 25.788712 18.372696 25.708984 18.292969 A 1.0001 1.0001 0 0 0 24.3125 18.275391 C 24.3125 18.275391 22.756585 19.753001 21.054688 21.400391 C 19.360733 23.040091 17.585477 24.771818 16.896484 25.572266 C 15.749794 26.770511 13.671903 29.159324 11.787109 31.822266 C 11.112458 32.775451 10.543117 33.75385 9.9707031 34.726562 C 10.231636 33.32327 10.652958 31.682026 11.484375 29.587891 L 11.486328 29.583984 C 11.487241 29.581684 11.487281 29.580425 11.488281 29.578125 C 13.368709 25.018661 19.363668 17.630389 21.693359 15.390625 A 1.0001 1.0001 0 0 0 21.707031 13.962891 C 21.707031 13.962891 19.311268 11.576707 16.373047 9.7792969 A 1.0001 1.0001 0 0 0 16.265625 9.6953125 C 16.259425 9.6913525 16.252254 9.6894969 16.246094 9.6855469 C 16.242994 9.6836969 16.241381 9.6815275 16.238281 9.6796875 L 16.238281 9.6816406 C 14.783785 8.7515704 13.128837 8.118579 11.486328 8.0097656 A 1.0001 1.0001 0 0 0 11.419922 8.0078125 z M 11.398438 10.013672 C 12.604053 10.103202 13.980477 10.605281 15.183594 11.378906 A 1.0001 1.0001 0 0 0 15.208984 11.394531 L 15.212891 11.396484 C 17.327214 12.666225 18.869724 14.063469 19.611328 14.759766 C 16.777759 17.658803 11.639581 23.957862 9.6347656 28.828125 A 1.0001 1.0001 0 0 0 9.6289062 28.837891 C 8.2092456 32.410188 7.7813148 35.007546 7.6933594 36.876953 C 5.371788 33.498329 4.0019531 29.413739 4.0019531 25 C 4.0019531 19.435401 6.1865638 14.425836 9.6523438 10.679688 C 9.6603138 10.671688 10.316696 10.024622 11.398438 10.013672 z M 38.898438 10.064453 C 39.441571 10.073904 39.851238 10.138172 40.132812 10.455078 A 1.0001 1.0001 0 0 0 40.173828 10.498047 L 40.439453 10.765625 C 43.90251 14.505611 46.003929 19.521555 46.097656 25.009766 C 46.096056 29.293891 44.784858 33.212231 42.609375 36.519531 C 42.562125 32.213745 40.815771 28.51343 38.291016 24.382812 A 1.0001 1.0001 0 0 0 38.283203 24.373047 C 35.354579 19.721649 31.515755 15.817338 30.462891 14.763672 C 32.360992 13.108433 34.108744 11.939695 35.455078 11.248047 C 36.907749 10.50177 37.768948 10.260757 38.310547 10.066406 C 38.521416 10.064931 38.717393 10.061303 38.898438 10.064453 z M 25.013672 20.375 C 25.326936 20.663868 25.515757 20.83842 26.068359 21.353516 C 26.997845 22.219915 28.212666 23.371178 29.523438 24.677734 C 32.14498 27.290847 35.153288 30.542584 36.986328 33.300781 A 1.0001 1.0001 0 0 0 37.001953 33.324219 C 39.488955 36.853832 40.00158 38.924571 40.126953 39.507812 C 36.308821 43.480111 30.930889 46 25.001953 46 C 19.134326 46 13.843665 43.58997 10.035156 39.716797 C 10.299292 38.065377 11.68988 35.422815 13.419922 32.978516 C 15.235147 30.413864 17.303522 28.037473 18.359375 26.935547 A 1.0001 1.0001 0 0 0 18.396484 26.894531 C 18.862606 26.350858 20.751711 24.477251 22.445312 22.837891 C 23.785218 21.5409 24.549601 20.816781 25.013672 20.375 z"></path>
</symbol>

</svg>