<svg xmlns="http://www.w3.org/2000/svg"  style="display: none;">
    <symbol id="epic" viewBox="0 0 50 50">
<path d="M 10 3 C 6.6983746 3 4 5.6983746 4 9 L 4 41.244141 L 25 47.544922 L 46 41.244141 L 46 40.5 L 46 9 C 46 5.6983746 43.301625 3 40 3 L 10 3 z M 10 5 L 40 5 C 42.220375 5 44 6.7796254 44 9 L 44 39.755859 L 25 45.455078 L 6 39.755859 L 6 9 C 6 6.7796254 7.7796254 5 10 5 z M 11 8 C 9.343 8 8 9.343 8 11 L 8 28 C 8 29.657 9.343 31 11 31 L 15 31 L 15 28 L 11 28 L 11 21 L 14 21 L 14 18 L 11 18 L 11 11 L 15 11 L 15 8 L 11 8 z M 17 8 L 17 31 L 20 31 L 20 21 L 23 21 C 24.657 21 26 19.657 26 18 L 26 11 C 26 9.343 24.657 8 23 8 L 17 8 z M 28 8 L 28 31 L 31 31 L 31 8 L 28 8 z M 36 8 C 34.343 8 33 9.343 33 11 L 33 28 C 33 29.657 34.343 31 36 31 L 39 31 C 40.657 31 42 29.657 42 28 L 42 24 L 39 24 L 39 28 L 36 28 L 36 11 L 39 11 L 39 15 L 42 15 L 42 11 C 42 9.343 40.657 8 39 8 L 36 8 z M 20 11 L 23 11 L 23 18 L 20 18 L 20 11 z M 9 33 C 8.448 33 8 33.448 8 34 L 8 38 C 8 38.552 8.448 39 9 39 L 13 39 C 13.552 39 14 38.552 14 38 L 14 36 L 12 36 L 12 37 L 13 37 L 13 37.75 C 13 37.888 12.888 38 12.75 38 L 9.25 38 C 9.112 38 9 37.888 9 37.75 L 9 34.25 C 9 34.112 9.112 34 9.25 34 L 12.75 34 C 12.888 34 13 34.112 13 34.25 L 13 35 L 14 35 L 14 34 C 14 33.448 13.552 33 13 33 L 9 33 z M 18 33 L 15 39 L 16 39 L 16.5 38 L 20.5 38 L 21 39 L 22 39 L 19 33 L 18 33 z M 23 33 L 23 39 L 24 39 L 24 35 L 25.5 38 L 26.5 38 L 28 35 L 28 39 L 29 39 L 29 33 L 28 33 L 26 37 L 24 33 L 23 33 z M 30 33 L 30 34 L 30 38 L 30 39 L 31 39 L 35 39 L 35 38 L 31 38 L 31 36.5 L 33 36.5 L 33 35.5 L 31 35.5 L 31 34 L 35 34 L 35 33 L 31 33 L 30 33 z M 37 33 C 36.448 33 36 33.448 36 34 L 36 35.5 C 36 36.052 36.448 36.5 37 36.5 L 40.75 36.5 C 40.888 36.5 41 36.612 41 36.75 L 41 37.75 C 41 37.888 40.888 38 40.75 38 L 37.25 38 C 37.112 38 37 37.888 37 37.75 L 37 37.5 L 36 37.5 L 36 38 C 36 38.552 36.448 39 37 39 L 41 39 C 41.552 39 42 38.552 42 38 L 42 36.5 C 42 35.948 41.552 35.5 41 35.5 L 37.25 35.5 C 37.112 35.5 37 35.388 37 35.25 L 37 34.25 C 37 34.112 37.112 34 37.25 34 L 40.75 34 C 40.888 34 41 34.112 41 34.25 L 41 34.5 L 42 34.5 L 42 34 C 42 33.448 41.552 33 41 33 L 37 33 z M 18.5 34 L 20 37 L 17 37 L 18.5 34 z"></path>
    </symbol>
    <symbol id="gog" viewBox="0 0 32 32">
<path d="M 5 6 C 3.90625 6 3 6.90625 3 8 L 3 12 C 3 13.09375 3.90625 14 5 14 L 9 14 L 9 15 L 4 15 C 3.640625 14.996094 3.304688 15.183594 3.121094 15.496094 C 2.941406 15.808594 2.941406 16.191406 3.121094 16.503906 C 3.304688 16.816406 3.640625 17.003906 4 17 L 9.03125 17 C 10.113281 17 11 16.113281 11 15.03125 L 11 12 C 11.007813 11.9375 11.007813 11.875 11 11.8125 L 11 8 C 11 6.90625 10.09375 6 9 6 Z M 14 6 C 12.90625 6 12 6.90625 12 8 L 12 12 C 12 13.09375 12.90625 14 14 14 L 18 14 C 19.09375 14 20 13.09375 20 12 L 20 8 C 20 6.90625 19.09375 6 18 6 Z M 23 6 C 21.90625 6 21 6.90625 21 8 L 21 12 C 21 13.09375 21.90625 14 23 14 L 27 14 L 27 15 L 22 15 C 21.640625 14.996094 21.304688 15.183594 21.121094 15.496094 C 20.941406 15.808594 20.941406 16.191406 21.121094 16.503906 C 21.304688 16.816406 21.640625 17.003906 22 17 L 27.03125 17 C 28.113281 17 29 16.113281 29 15.03125 L 29 12 C 29.007813 11.9375 29.007813 11.875 29 11.8125 L 29 8 C 29 6.90625 28.09375 6 27 6 Z M 5 8 L 9 8 L 9 11.8125 C 8.996094 11.855469 8.996094 11.894531 9 11.9375 L 9 12 L 5 12 Z M 14 8 L 18 8 L 18 12 L 14 12 Z M 23 8 L 27 8 L 27 11.8125 C 26.996094 11.855469 26.996094 11.894531 27 11.9375 L 27 12 L 23 12 Z M 23.90625 17.96875 C 23.863281 17.976563 23.820313 17.988281 23.78125 18 L 21 18 C 19.90625 18 19 18.90625 19 20 L 19 25 C 18.996094 25.359375 19.183594 25.695313 19.496094 25.878906 C 19.808594 26.058594 20.191406 26.058594 20.503906 25.878906 C 20.816406 25.695313 21.003906 25.359375 21 25 L 21 20 L 23 20 L 23 25 C 22.996094 25.359375 23.183594 25.695313 23.496094 25.878906 C 23.808594 26.058594 24.191406 26.058594 24.503906 25.878906 C 24.816406 25.695313 25.003906 25.359375 25 25 L 25 20 L 27 20 L 27 25.03125 C 26.996094 25.390625 27.183594 25.726563 27.496094 25.910156 C 27.808594 26.089844 28.191406 26.089844 28.503906 25.910156 C 28.816406 25.726563 29.003906 25.390625 29 25.03125 L 29 18 L 24.1875 18 C 24.097656 17.976563 24 17.964844 23.90625 17.96875 Z M 5 18 C 3.90625 18 3 18.90625 3 20 L 3 24 C 3 25.09375 3.90625 26 5 26 L 8 26 C 8.359375 26.003906 8.695313 25.816406 8.878906 25.503906 C 9.058594 25.191406 9.058594 24.808594 8.878906 24.496094 C 8.695313 24.183594 8.359375 23.996094 8 24 L 5 24 L 5 20 L 8 20 C 8.359375 20.003906 8.695313 19.816406 8.878906 19.503906 C 9.058594 19.191406 9.058594 18.808594 8.878906 18.496094 C 8.695313 18.183594 8.359375 17.996094 8 18 Z M 12 18 C 10.90625 18 10 18.90625 10 20 L 10 24 C 10 25.09375 10.90625 26 12 26 L 16 26 C 17.09375 26 18 25.09375 18 24 L 18 20 C 18 18.90625 17.09375 18 16 18 Z M 12 20 L 16 20 L 16 24 L 12 24 Z"></path>
    </symbol>
    <symbol id="uplay" viewBox="0 0 50 50">
<path d="M 19.5 0 C 17.578125 0 16 1.578125 16 3.5 C 16 5.421875 17.578125 7 19.5 7 C 21.421875 7 23 5.421875 23 3.5 C 23 1.578125 21.421875 0 19.5 0 Z M 7.59375 2 C 5.277344 2 3.3125 3 2 4.53125 C 0.6875 6.0625 0 8.105469 0 10.25 C 0 12.542969 1.347656 14.195313 2.875 15.15625 C 4.402344 16.117188 6.097656 16.5 7.375 16.5 C 9 16.5 10.859375 15.960938 12.375 14.6875 C 13.890625 13.414063 15 11.390625 15 8.65625 C 15 5.714844 13.324219 3.878906 11.625 3 C 9.925781 2.121094 8.25 2 7.59375 2 Z M 19.5 2 C 20.339844 2 21 2.660156 21 3.5 C 21 4.339844 20.339844 5 19.5 5 C 18.660156 5 18 4.339844 18 3.5 C 18 2.660156 18.660156 2 19.5 2 Z M 7.59375 4 C 7.945313 4 9.472656 4.136719 10.71875 4.78125 C 11.964844 5.425781 13 6.410156 13 8.65625 C 13 10.875 12.191406 12.234375 11.09375 13.15625 C 9.996094 14.078125 8.542969 14.5 7.375 14.5 C 6.546875 14.5 5.070313 14.179688 3.9375 13.46875 C 2.804688 12.757813 2 11.804688 2 10.25 C 2 8.542969 2.566406 6.96875 3.53125 5.84375 C 4.496094 4.71875 5.832031 4 7.59375 4 Z M 31.3125 5.03125 C 19.5 5.03125 8.8125 15.617188 8.8125 29.65625 C 8.8125 35.773438 12.691406 40.625 17.4375 43.90625 C 22.183594 47.1875 27.8125 49 31.9375 49 C 36.175781 49 40.636719 46.472656 44.09375 42.3125 C 47.550781 38.152344 50 32.3125 50 25.53125 C 50 18.988281 46.359375 13.832031 42.28125 10.375 C 40.242188 8.648438 38.078125 7.339844 36.15625 6.4375 C 34.234375 5.535156 32.59375 5.03125 31.3125 5.03125 Z M 31.3125 7.03125 C 31.984375 7.03125 33.554688 7.425781 35.3125 8.25 C 37.070313 9.074219 39.078125 10.304688 40.96875 11.90625 C 44.75 15.113281 48 19.730469 48 25.53125 C 48 31.832031 45.726563 37.222656 42.5625 41.03125 C 39.398438 44.839844 35.359375 47 31.9375 47 C 28.421875 47 22.96875 45.332031 18.5625 42.28125 C 14.15625 39.230469 10.8125 34.925781 10.8125 29.65625 C 10.8125 16.632813 20.699219 7.03125 31.3125 7.03125 Z M 17 18 L 17 30.5 C 17 34.628906 20.371094 38 24.5 38 L 41 38 L 41 18 L 34 18 L 34 30.5 C 34 30.785156 33.785156 31 33.5 31 L 24.5 31 C 24.214844 31 24 30.785156 24 30.5 L 24 18 Z M 19 20 L 22 20 L 22 30.5 C 22 31.867188 23.132813 33 24.5 33 L 33.5 33 C 34.867188 33 36 31.867188 36 30.5 L 36 20 L 39 20 L 39 36 L 24.5 36 C 21.449219 36 19 33.550781 19 30.5 Z"></path>
    </symbol>
</svg>